# xmcd CD database file
#
# Track frame offsets:
#	150
#	34014
#	66674
#	89827
#	117249
#	140673
#	168121
#	206491
#	226510
#	247931
#	285300
#
# Disc length: 4150 seconds
#
# Revision: 0
# Processed by: cddbd v1.5.2PL0 Copyright (c) Steve Scherf et al.
# Submitted via: CDex 1.70beta2
#
DISCID=9510340b
DTITLE=James Carter - Present Tense
DYEAR=2008
DGENRE=Jazz
TTITLE0=Rapid Shave
TTITLE1=Bro. Dolphy
TTITLE2=Pour Que Ma Vie Demeure
TTITLE3=Sussa Nita
TTITLE4=Song Of Delilah
TTITLE5=Dodo's  Bounce
TTITLE6=Shadowy Sands
TTITLE7=Hymn Of The Orient
TTITLE8=Bossa J.C.
TTITLE9=Tenderly
TTITLE10=Anchorman
EXTD=YEAR: 2008
EXTT0=
EXTT1=
EXTT2=
EXTT3=
EXTT4=
EXTT5=
EXTT6=
EXTT7=
EXTT8=
EXTT9=
EXTT10=
PLAYORDER=
